<svg width="48" height="48" viewBox="0 0 48 48" fill="none" xmlns="http://www.w3.org/2000/svg">
<path d="M24 0C10.8 0 0 10.8 0 24C0 37.2 10.8 48 24 48C37.2 48 48 37.2 48 24C48 10.8 37.2 0 24 0ZM39.2 11.2C42 14.4 43.6 18.6 43.8 22.8C38.6 22 34 22 29.6 22.6C29.2 21.4 28.6 20.4 28 19.2C32.6 17.4 36.4 14.6 39.2 11.2V11.2ZM24 4.2C28.6 4.2 32.8 5.8 36 8.4C33.6 11.6 30.2 14 26 15.8C24 12 21.6 8.4 19 5C20.8 4.4 22.4 4.2 24 4.2V4.2ZM4.8 19.4C6.2 13.8 10 9 15 6.4C17.6 9.8 20 13.4 22 17.2C17.2 18.6 11.4 19.2 4.8 19.4V19.4ZM4.2 24V23.4C11.8 23.4 18.6 22.6 24.2 20.8C24.6 21.8 25.2 22.8 25.6 23.6C18.8 25.8 13.2 30 9 36.6C5.8 33.2 4.2 28.6 4.2 24V24ZM11.8 39.6C15.8 33.4 20.8 29.4 27 27.6C28.8 32.4 30.2 37.4 31 42.6C24.4 45 17.2 43.8 11.8 39.6V39.6ZM35 40.4C34.2 35.6 32.8 31 31.2 26.6C35 26 39 26.2 43.6 27C42.8 32.6 39.6 37.4 35 40.4V40.4Z" fill="white"/>
</svg>
