<svg width="48" height="48" viewBox="0 0 48 48" fill="none" xmlns="http://www.w3.org/2000/svg">
<path d="M24.12 0C10.852 0 0 10.8359 0 24.0779C0 34.6728 6.99401 43.8215 16.4 46.9527C17.606 47.1937 18.09 46.4707 18.09 45.7476V41.6563C11.336 43.1024 9.89002 38.5271 9.89002 38.5271C8.92402 35.6368 7.23601 34.9138 7.23601 34.9138C5.06601 33.4697 7.47601 33.4697 7.47601 33.4697C9.88802 33.7107 11.096 35.8779 11.096 35.8779C13.266 39.7302 16.884 38.5271 18.09 38.045C18.33 36.5989 18.812 35.3958 19.536 34.9158C14.472 34.1927 8.68202 32.0255 8.68202 22.8768C8.68202 20.2256 9.64802 18.0604 11.094 16.3753C10.854 15.6522 10.13 13.2441 11.334 9.87379C11.334 9.87379 13.266 9.15073 17.848 12.282C20.018 12.041 22.188 11.5589 24.118 11.5589C26.048 11.5589 28.2181 11.7999 30.1481 12.282C34.7301 9.15073 36.6601 9.87379 36.6601 9.87379C37.8661 13.2441 37.1421 15.6522 36.9001 16.1343C38.4714 17.9308 39.3306 20.2447 39.3141 22.6358C39.3141 31.7845 33.7661 33.9517 28.2181 34.4337C29.1841 35.1568 29.9061 36.6009 29.9061 39.0071V45.5086C29.9061 46.2317 30.3901 46.9547 31.5961 46.7137C41.2421 43.5825 47.9961 34.4337 47.9961 23.8389C48.2361 10.8359 37.3841 0 24.118 0H24.12Z" fill="white"/>
</svg>
