<svg viewBox="0 0 48 48" 
    xmlns="http://www.w3.org/2000/svg">
    <path d="M22.5216 0.622664C23.3149 -0.248045 24.6851 -0.248045 25.4784 0.622664L28.3129 3.7337C28.8391 4.3113 29.6536 4.52953 30.3981 4.29244L34.4083 3.01543C35.5307 2.65803 36.7173 3.34313 36.969 4.49383L37.8682 8.6053C38.0351 9.36864 38.6314 9.96486 39.3947 10.1318L43.5062 11.031C44.6569 11.2827 45.342 12.4693 44.9846 13.5917L43.7076 17.6019C43.4705 18.3464 43.6887 19.1609 44.2663 19.6871L47.3773 22.5216C48.248 23.3149 48.248 24.6851 47.3773 25.4784L44.2663 28.3129C43.6887 28.8391 43.4705 29.6536 43.7076 30.3981L44.9846 34.4083C45.342 35.5307 44.6569 36.7173 43.5062 36.969L39.3947 37.8682C38.6314 38.0351 38.0351 38.6314 37.8682 39.3947L36.969 43.5062C36.7173 44.6569 35.5307 45.342 34.4083 44.9846L30.3981 43.7076C29.6536 43.4705 28.8391 43.6887 28.3129 44.2663L25.4784 47.3773C24.6851 48.248 23.3149 48.248 22.5216 47.3773L19.6871 44.2663C19.1609 43.6887 18.3464 43.4705 17.6019 43.7076L13.5917 44.9846C12.4693 45.342 11.2827 44.6569 11.031 43.5062L10.1318 39.3947C9.96486 38.6314 9.36864 38.0351 8.60529 37.8682L4.49383 36.969C3.34313 36.7173 2.65803 35.5307 3.01543 34.4083L4.29244 30.3981C4.52953 29.6536 4.3113 28.8391 3.7337 28.3129L0.622664 25.4784C-0.248045 24.6851 -0.248045 23.3149 0.622664 22.5216L3.7337 19.6871C4.3113 19.1609 4.52953 18.3464 4.29244 17.6019L3.01543 13.5917C2.65803 12.4693 3.34313 11.2827 4.49383 11.031L8.6053 10.1318C9.36864 9.96486 9.96486 9.36864 10.1318 8.60529L11.031 4.49383C11.2827 3.34313 12.4693 2.65803 13.5917 3.01543L17.6019 4.29244C18.3464 4.52953 19.1609 4.3113 19.6871 3.7337L22.5216 0.622664Z"/>
</svg>
