<svg viewBox="0 0 48 48" 
    xmlns="http://www.w3.org/2000/svg">
    <path d="M48 8.81473C46.3289 9.538 44.4178 10.0202 42.2684 10.2595C44.1796 9.05405 45.8507 7.12886 46.5671 4.7215C44.656 5.92695 42.5067 6.64846 40.3591 7.12886C38.688 5.20368 36.0604 4 33.1947 4C27.7013 4 23.4027 8.33255 23.4027 13.8705C23.4027 14.592 23.4027 15.3153 23.6409 16.0368C15.5218 15.7957 8.35911 11.9454 3.58222 5.92518C2.62756 7.36996 2.14933 9.05582 2.14933 10.981C2.14933 14.3527 3.82044 17.4816 6.448 19.1675C5.01511 19.1675 3.58222 18.6853 2.14933 17.962V18.2031C2.14933 23.0178 5.49156 26.8717 10.0302 27.8325C9.31378 28.0736 8.35911 28.0736 7.40267 28.0736C6.68622 28.0736 6.20978 28.0736 5.49333 27.8325C6.68622 31.6847 10.2684 34.5742 14.5671 34.5742C11.2249 37.2227 6.92622 38.9068 2.38933 38.9068C1.67111 38.9068 0.716444 38.9068 0 38.6675C4.29867 41.557 9.552 43 15.0453 43C32.9547 43 42.9849 27.8325 42.9849 14.8331V13.6295C45.136 12.4258 46.5671 10.7399 48 8.81473V8.81473Z"/>
</svg>
