<svg xmlns="http://www.w3.org/2000/svg" width="51" height="81" viewBox="0 0 51 81">
  <g id="Group_11" data-name="Group 11" transform="translate(3 3)">
    <rect id="Rectangle_387" data-name="Rectangle 387" width="35" height="65" transform="translate(5 5)" fill="hsla(0, 0%, 100%, 1)"/>
    <path id="Union_13" data-name="Union 13" d="M10,20V15h5v5ZM5,20H0V15H5V10h5V20ZM10,5V0h5V5ZM0,5V0H5V5Z" transform="translate(15 20)" fill="hsla(140, 6%, 15%, 1)"/>
    <g id="Union_14" data-name="Union 14" fill="hsla(140, 6%, 15%, 1)" stroke-linejoin="round">
      <path d="M 31.49992179870605 76.49997711181641 L 29.99992179870605 76.49997711181641 L 15.00007820129395 76.49997711181641 L 13.50007820129395 76.49997711181641 L 13.50007820129395 74.99997711181641 L 13.50007820129395 71.49997711181641 L 4.999955654144287 71.49997711181641 L 3.499955654144287 71.49997711181641 L 3.499955654144287 69.99997711181641 L 3.499955654144287 66.49985504150391 L 0 66.49985504150391 L -1.5 66.49985504150391 L -1.5 64.99985504150391 L -1.5 4.999940395355225 L -1.5 3.499940395355225 L 0 3.499940395355225 L 3.499955654144287 3.499940395355225 L 3.499955654144287 -4.147677827859297e-06 L 3.499955654144287 -1.500004172325134 L 4.999955654144287 -1.500004172325134 L 15.00007820129395 -1.500004172325134 L 16.50007820129395 -1.500004172325134 L 16.50007820129395 -4.147677827859297e-06 L 16.50007820129395 3.499940395355225 L 28.49992179870605 3.499940395355225 L 28.49992179870605 -4.147677827859297e-06 L 28.49992179870605 -1.500004172325134 L 29.99992179870605 -1.500004172325134 L 40.00005722045898 -1.500004172325134 L 41.50005722045898 -1.500004172325134 L 41.50005722045898 -4.147677827859297e-06 L 41.50005722045898 3.499940395355225 L 45 3.499940395355225 L 46.5 3.499940395355225 L 46.5 4.999940395355225 L 46.5 64.99985504150391 L 46.5 66.49985504150391 L 45 66.49985504150391 L 41.50005722045898 66.49985504150391 L 41.50005722045898 69.99997711181641 L 41.50005722045898 71.49997711181641 L 40.00005722045898 71.49997711181641 L 31.49992179870605 71.49997711181641 L 31.49992179870605 74.99997711181641 L 31.49992179870605 76.49997711181641 Z M 16.50007820129395 68.49997711181641 L 28.49992179870605 68.49997711181641 L 28.49992179870605 64.99985504150391 L 28.49992179870605 63.49985122680664 L 29.99992179870605 63.49985122680664 L 38.50005722045898 63.49985122680664 L 38.50005722045898 6.499940395355225 L 31.49992179870605 6.499940395355225 L 31.49992179870605 9.999873161315918 L 31.49992179870605 11.49987316131592 L 29.99992179870605 11.49987316131592 L 15.00007820129395 11.49987316131592 L 13.50007820129395 11.49987316131592 L 13.50007820129395 9.999873161315918 L 13.50007820129395 6.499940395355225 L 6.499955654144287 6.499940395355225 L 6.499955654144287 63.49985122680664 L 15.00007820129395 63.49985122680664 L 16.50007820129395 63.49985122680664 L 16.50007820129395 64.99985504150391 L 16.50007820129395 68.49997711181641 Z" stroke="none"/>
      <path d="M 29.99992561340332 74.99996948242188 L 29.99992561340332 69.99998474121094 L 15.000075340271 69.99998474121094 L 15.000075340271 64.99986267089844 L 4.999949932098389 64.99986267089844 L 4.999949932098389 69.99998474121094 L 15.000075340271 69.99998474121094 L 15.000075340271 74.99996948242188 L 29.99992561340332 74.99996948242188 M 40.00004959106445 69.99998474121094 L 40.00004959106445 64.99986267089844 L 29.99992561340332 64.99986267089844 L 29.99992561340332 69.99998474121094 L 40.00004959106445 69.99998474121094 M 45 64.99986267089844 L 45 4.999934673309326 L 40.00004959106445 4.999934673309326 L 40.00004959106445 64.99986267089844 L 45 64.99986267089844 M 4.999949932098389 64.99986267089844 L 4.999949932098389 4.999934673309326 L 0 4.999934673309326 L 0 64.99986267089844 L 4.999949932098389 64.99986267089844 M 29.99992561340332 9.999872207641602 L 29.99992561340332 4.999934673309326 L 15.000075340271 4.999934673309326 L 15.000075340271 -2.758789150902885e-06 L 4.999949932098389 -2.758789150902885e-06 L 4.999949932098389 4.999934673309326 L 15.000075340271 4.999934673309326 L 15.000075340271 9.999872207641602 L 29.99992561340332 9.999872207641602 M 40.00004959106445 4.999934673309326 L 40.00004959106445 -2.758789150902885e-06 L 29.99992561340332 -2.758789150902885e-06 L 29.99992561340332 4.999934673309326 L 40.00004959106445 4.999934673309326 M 29.99992561340332 77.99996948242188 L 15.000075340271 77.99996948242188 C 13.34322452545166 77.99996948242188 12.000075340271 76.65682220458984 12.000075340271 74.99996948242188 L 12.000075340271 72.99998474121094 L 4.999949932098389 72.99998474121094 C 3.343100070953369 72.99998474121094 1.999950051307678 71.65683746337891 1.999950051307678 69.99998474121094 L 1.999950051307678 67.99986267089844 L 0 67.99986267089844 C -1.656849980354309 67.99986267089844 -3 66.65670776367188 -3 64.99986267089844 L -3 4.999934673309326 C -3 3.343084812164307 -1.656849980354309 1.999934792518616 0 1.999934792518616 L 1.999950051307678 1.999934792518616 L 1.999950051307678 -2.758789150902885e-06 C 1.999950051307678 -1.656852722167969 3.343100070953369 -3.000002861022949 4.999949932098389 -3.000002861022949 L 15.000075340271 -3.000002861022949 C 16.65692520141602 -3.000002861022949 18.00007438659668 -1.656852722167969 18.00007438659668 -2.758789150902885e-06 L 18.00007438659668 1.999934792518616 L 26.99992561340332 1.999934792518616 L 26.99992561340332 -2.758789150902885e-06 C 26.99992561340332 -1.656852722167969 28.34307479858398 -3.000002861022949 29.99992561340332 -3.000002861022949 L 40.00004959106445 -3.000002861022949 C 41.65689849853516 -3.000002861022949 43.00004959106445 -1.656852722167969 43.00004959106445 -2.758789150902885e-06 L 43.00004959106445 1.999934792518616 L 45 1.999934792518616 C 46.6568489074707 1.999934792518616 48 3.343084812164307 48 4.999934673309326 L 48 64.99986267089844 C 48 66.65670776367188 46.6568489074707 67.99986267089844 45 67.99986267089844 L 43.00004959106445 67.99986267089844 L 43.00004959106445 69.99998474121094 C 43.00004959106445 71.65683746337891 41.65689849853516 72.99998474121094 40.00004959106445 72.99998474121094 L 32.99992370605469 72.99998474121094 L 32.99992370605469 74.99996948242188 C 32.99992370605469 76.65682220458984 31.65677452087402 77.99996948242188 29.99992561340332 77.99996948242188 Z M 18.00007438659668 66.99998474121094 L 26.99992561340332 66.99998474121094 L 26.99992561340332 64.99986267089844 C 26.99992561340332 63.34300994873047 28.34307479858398 61.99985885620117 29.99992561340332 61.99985885620117 L 37.00004959106445 61.99985885620117 L 37.00004959106445 7.999934673309326 L 32.99992370605469 7.999934673309326 L 32.99992370605469 9.999872207641602 C 32.99992370605469 11.65672206878662 31.65677452087402 12.9998722076416 29.99992561340332 12.9998722076416 L 15.000075340271 12.9998722076416 C 13.34322452545166 12.9998722076416 12.000075340271 11.65672206878662 12.000075340271 9.999872207641602 L 12.000075340271 7.999934673309326 L 7.999949932098389 7.999934673309326 L 7.999949932098389 61.99985885620117 L 15.000075340271 61.99985885620117 C 16.65692520141602 61.99985885620117 18.00007438659668 63.34300994873047 18.00007438659668 64.99986267089844 L 18.00007438659668 66.99998474121094 Z" stroke="none" fill="hsla(0, 0%, 100%, 1)"/>
    </g>
    <path id="Union_15" data-name="Union 15" d="M10,15V10H0V5H25V0H35V10H25v5Z" transform="translate(5 55)" fill="hsla(250, 100%, 75%, 1)"/>
  </g>
</svg>
