<svg width="24" height="24" viewBox="0 0 24 24" fill="none" xmlns="http://www.w3.org/2000/svg">
<path fill-rule="evenodd" clip-rule="evenodd" d="M6 15.496V18L0 12L1.251 10.749L6 15.496ZM8.504 18H6L12 24L13.251 22.749L8.504 18ZM22.744 13.253L23.997 12L11.997 0L10.747 1.256L15.494 6.003H12.626L9.312 2.696L8.061 3.947L10.121 6.008H8.681V15.322H17.995V13.882L20.056 15.942L21.307 14.692L17.995 11.378V8.508L22.744 13.253ZM6.626 5.379L5.37 6.632L6.714 7.975L7.966 6.723L6.626 5.379ZM17.282 16.035L16.03 17.288L17.373 18.632L18.626 17.379L17.282 16.035ZM3.939 8.065L2.686 9.32L6 12.632V10.126L3.939 8.065ZM13.88 18.005H11.374L14.687 21.319L15.94 20.066L13.88 18.005Z" fill="#FF6363"/>
</svg>
