<svg width="906" height="836" viewBox="0 0 906 836" fill="none" xmlns="http://www.w3.org/2000/svg">
<path d="M838.686 143.65C820.089 149.709 805.193 163.809 795.803 174.084C783.607 187.43 771.638 212.109 765.695 232.619C760.506 250.526 764.704 260.634 766.697 270.903C778.495 280.194 804.82 301.655 829.583 305.157C856.822 307.658 921.206 199.102 898.077 179.402C877.775 163.276 808.612 270.459 822.355 299" stroke="#00FFFF" stroke-width="5" stroke-linecap="round" stroke-linejoin="round"/>
<path d="M346.164 46.6948C411.554 10.9427 535.135 -24.8095 665.915 35.1813C685.592 44.3921 726.906 72.5494 745.103 85.4767C753.502 100.626 769.099 170.312 838.688 143.65C853.086 150.436 884.281 170.312 898.079 179.402" stroke="#0000FF" stroke-width="5" stroke-linecap="round" stroke-linejoin="round"/>
<path d="M638.316 242.422C713.905 164.253 760.295 221.712 765.694 232.619M638.316 179.402C700.707 116.381 734.902 140.62 755.298 150.921C775.695 161.223 779.562 164.084 795.802 174.084" stroke="#FFFF00" stroke-width="5" stroke-linecap="round" stroke-linejoin="round"/>
<path d="M540.534 137.59C545.828 133.144 550.609 128.054 554.684 122.555C591.704 72.593 570.44 -11.1687 346.164 46.6948V81.8409C415.387 65.4798 496.242 48.5343 523.137 77.8388C524.333 79.1416 475.144 60.026 346.164 107.898C346.164 121.471 346.164 137.388 346.164 143.65C463.956 105.576 522.292 112.109 553 122" stroke="#FFFF00" stroke-width="5" stroke-linecap="round" stroke-linejoin="round"/>
<path d="M613.349 229.219L638.32 242.423V179.402C621.523 160.213 578.449 124.986 540.535 137.59C540.535 150.679 540.535 171.408 540.535 180.136" stroke="#00FF00" stroke-width="5" stroke-linecap="round" stroke-linejoin="round"/>
<path d="M622.721 218.184C621.609 219.658 618.322 223.515 613.347 229.219C583.96 262.913 495.67 361.039 448.836 412.928" stroke="#FF00FF" stroke-width="5" stroke-linecap="round" stroke-linejoin="round"/>
<path d="M374.352 358.708L540.534 180.136L551.932 167.888C578.928 159.405 611.323 166.676 622.721 218.184" stroke="#FF00FF" stroke-width="5" stroke-linecap="round" stroke-linejoin="round"/>
<path d="M136.683 810.5C124.083 769.392 44.498 688.792 7.98252 714.076C-24.7743 745.869 113.878 856.195 135.888 828.617C141.19 821.974 169.227 783.385 181.234 762.592C193.242 741.8 440.258 444.64 448.835 431.644C451.959 426.91 451.669 420.336 448.835 412.928C443.889 400 431.196 384.532 415.385 371.865C400.222 359.718 385.378 357.23 374.35 358.708C367.287 359.655 361.789 362.229 358.775 364.935C351.666 371.316 74.8073 634.754 17.5701 701.5" stroke="#FF0000" stroke-width="5" stroke-linecap="round" stroke-linejoin="round"/>
</svg>
