<svg xmlns="http://www.w3.org/2000/svg" viewBox="0 0 71.3 70.98"><defs><style>.cls-1{fill:#231815;}.cls-2,.cls-3{fill:none;}.cls-2{stroke:#231815;stroke-miterlimit:10;stroke-width:0.25px;}</style></defs><g id="图层_2" data-name="图层 2"><g id="图层_2-2" data-name="图层 2"><path class="cls-1" d="M27,11c-.18.42-.37.84-.58,1.26s-.37.74-.57,1.1-.27.5-.42.74-.24.43-.38.64c-.22.37-.46.73-.71,1.09l-.31.45c-.2.28-.41.55-.61.82,0,.06-.09.12-.14.17-.2.27-.42.54-.64.8l-.37.42c-.23.27-.47.54-.72.8l0,0c-.15.17-.31.33-.47.49s-.32.33-.49.48a.18.18,0,0,1-.08.07c-.31.3-.62.59-.95.88a.39.39,0,0,1-.1.08c-.28.25-.57.49-.87.73l-.38.3-.62.46c-.2.15-.41.3-.62.43s-.68.47-1,.69-.47.29-.71.43a5.54,5.54,0,0,1-.53.3c-.36.21-.72.4-1.09.58s-.86.42-1.3.61-.88.38-1.33.55V34A35.73,35.73,0,0,0,34.72,11Z"/><path class="cls-1" d="M37.56,59.62h8.28l.06-.14c.12-.33.26-.65.41-1,0-.11.09-.21.14-.32.12-.28.25-.55.39-.82s.21-.43.33-.64.15-.29.23-.43l.36-.64c.15-.26.3-.52.47-.77l.06-.1q.28-.45.6-.9c.09-.15.2-.29.3-.43s.31-.44.48-.65.47-.61.72-.91.47-.57.73-.84a25.26,25.26,0,0,1,2.25-2.26c.32-.29.65-.58,1-.85s.69-.56,1-.81A27.49,27.49,0,0,1,60,44.38V36.65A35.87,35.87,0,0,0,37.56,59.62Z"/><path class="cls-2" d="M44.61,61.27a.74.74,0,0,0,0,.14c-.1.23-.18.47-.28.71s-.21.61-.3.92-.16.54-.23.81a7,7,0,0,0-.24.87A22.13,22.13,0,0,0,43,67.64c-.06.31-.1.61-.13.92s0,.44-.06.66,0,.36,0,.54,0,.67,0,1v.08H6.55A6.44,6.44,0,0,1,.12,64.42V28.94A27.89,27.89,0,0,0,9.2,27.13V55.91a5.35,5.35,0,0,0,5.35,5.36Z"/><path class="cls-2" d="M71.17,6.54V40.79l-.6.07c-.27,0-.54.06-.81.11l-1.26.21c-.29,0-.57.11-.86.18l-.33.09c-.29.06-.57.14-.86.22a5.72,5.72,0,0,0-.59.17l-.69.2-.32.12c-.33.1-.66.22-1,.35l-.07,0c-.35.14-.71.27-1,.43s-.77.33-1.15.52V14.54a5.37,5.37,0,0,0-5.36-5.36H28.12A27.94,27.94,0,0,0,30.32.12H64.75A6.41,6.41,0,0,1,71.17,6.54Z"/><path class="cls-3" d="M57.94,21.7V50.63a27.49,27.49,0,0,0-4.54,2.76q-.54.39-1,.81c-.34.28-.67.56-1,.85a25.26,25.26,0,0,0-2.25,2.26c-.26.27-.5.55-.73.84s-.49.6-.72.91-.33.43-.48.65-.21.28-.3.43-.41.59-.6.9l-.06.1c-.16.25-.32.51-.47.77l-.36.64c-.08.14-.16.28-.23.43s-.23.43-.33.64-.27.54-.39.82c0,.11-.1.21-.14.32-.15.32-.28.64-.41,1l-.06.14H13.77a5.36,5.36,0,0,1-5.36-5.36V31.73c.45-.17.89-.35,1.33-.55s.88-.39,1.3-.61.73-.37,1.09-.58a5.54,5.54,0,0,0,.53-.3c.24-.14.48-.28.71-.43s.7-.44,1-.69.42-.28.62-.43l.62-.46.38-.3c.3-.24.59-.48.87-.73a.39.39,0,0,0,.1-.08c.33-.29.64-.58.95-.88a.18.18,0,0,0,.08-.07c.17-.15.33-.31.49-.48s.32-.32.47-.49l0,0c.25-.26.49-.53.72-.8l.37-.42c.22-.26.44-.53.64-.8.05-.05.09-.11.14-.17.2-.27.41-.54.61-.82l.31-.45c.25-.36.49-.72.71-1.09.14-.21.26-.43.38-.64s.29-.49.42-.74.39-.73.57-1.1.4-.84.58-1.26H52.58A5.36,5.36,0,0,1,57.94,21.7Z"/></g></g></svg>